<svg xmlns="http://www.w3.org/2000/svg" version="1.1" xmlns:xlink="http://www.w3.org/1999/xlink" width="250" height="80" viewBox="0 0 479 80">
  <rect width="100%" height="100%" fill="transparent"></rect>
  <path fill="#f0f8ff" d="M4.68 63.38V4.98h9.44l6.08 18.88q.88 2.56 1.6 5.08.72 2.52 1.04 3.88.4-1.36 1.04-3.88.64-2.52 1.44-5.16l5.76-18.8h9.44v58.4h-7.04v-21.2q0-3.52.24-8t.64-9.16q.4-4.68.84-8.96.44-4.28.76-7.48l-9.44 29.2h-7.6L9.4 8.58q.4 3.12.8 7.24t.72 8.72q.32 4.6.56 9.16.24 4.56.24 8.48v21.2Z"></path>
  <path fill="#f0f8ff" d="M53.4 63.38v-6.56H69V25.94H55.4v-6.56h20.8v37.44H91v6.56Zm18.4-51.92q-2.64 0-4.16-1.36t-1.52-3.68q0-2.4 1.52-3.8t4.16-1.4q2.64 0 4.16 1.4t1.52 3.8q0 2.32-1.52 3.68-1.52 1.36-4.16 1.36"></path>
  <path fill="#f0f8ff" d="M102.2 63.38V4.98h7.2v32.56h8.48l12.8-18.16h8.24l-14.8 20.96 15.04 23.04h-8.4l-12.8-19.6h-8.56v19.6Z"></path>
  <path fill="#f0f8ff" d="M166.6 64.18q-5.2 0-9.08-2.08t-6-5.88q-2.12-3.8-2.12-8.84v-12q0-5.12 2.12-8.88 2.12-3.76 6-5.84t9.08-2.08q5.2 0 9.08 2.08t6 5.84q2.12 3.76 2.12 8.88v7.76h-27.36v4.24q0 5.2 2.64 7.96t7.52 2.76q4.16 0 6.72-1.48 2.56-1.48 3.12-4.44h7.2q-.72 5.52-5.4 8.76-4.68 3.24-11.64 3.24m10.16-25.84v-2.96q0-5.2-2.6-8t-7.56-2.8q-4.88 0-7.52 2.8-2.64 2.8-2.64 8v2.32h20.88Z"></path>
  <path fill="#f0f8ff" d="M246.04 63.38V4.98h7.2v24.96h18.72V4.98h7.2v58.4h-7.2V36.5h-18.72v26.88Z"></path>
  <path fill="#f0f8ff" d="m300.84 77.78 6.48-17.12L291 19.38h8l10.24 27.2q.56 1.36 1.04 3.24.48 1.88.8 3.16.32-1.28.8-3.16.48-1.88.96-3.24l9.6-27.2h7.76l-21.68 58.4Z"></path>
  <path fill="#f0f8ff" d="M364.6 63.38q-3.84 0-6.72-1.52t-4.48-4.32q-1.6-2.8-1.6-6.56V11.54H337V4.98h22v46q0 2.72 1.52 4.28t4.08 1.56h14v6.56Z"></path>
  <path fill="#f0f8ff" d="M406.6 64.18q-5.2 0-9.08-2.08t-6-5.88q-2.12-3.8-2.12-8.84v-12q0-5.12 2.12-8.88 2.12-3.76 6-5.84t9.08-2.08q5.2 0 9.08 2.08t6 5.84q2.12 3.76 2.12 8.88v7.76h-27.36v4.24q0 5.2 2.64 7.96t7.52 2.76q4.16 0 6.72-1.48 2.56-1.48 3.12-4.44h7.2q-.72 5.52-5.4 8.76-4.68 3.24-11.64 3.24m10.16-25.84v-2.96q0-5.2-2.6-8t-7.56-2.8q-4.88 0-7.52 2.8-2.64 2.8-2.64 8v2.32h20.88Z"></path>
  <path fill="#f0f8ff" d="M439.48 63.38v-44h7.04v8.4h1.68l-2.32 5.2q0-7.12 3.08-10.76 3.08-3.64 9.16-3.64 6.96 0 11.08 4.36t4.12 11.8v2.64h-7.2v-2q0-5.2-2.52-7.96t-7.16-2.76q-4.56 0-7.16 2.8-2.6 2.8-2.6 7.92v28Z"></path>
</svg>